<svg id="arrow-up-from-square-solid" xmlns="http://www.w3.org/2000/svg" width="36.248" height="36.247" viewBox="0 0 36.248 36.247">
  <path id="arrow-up-from-square-solid-2" data-name="arrow-up-from-square-solid" d="M19.724.689a2.269,2.269,0,0,0-3.207,0l-6.8,6.8a2.268,2.268,0,0,0,3.207,3.207l2.931-2.931V22.678a2.266,2.266,0,1,0,4.531,0V7.761l2.931,2.931a2.268,2.268,0,0,0,3.207-3.207l-6.8-6.8ZM4.531,7.953A1.136,1.136,0,0,1,5.664,6.82H6.23a2.266,2.266,0,1,0,0-4.531H5.664A5.662,5.662,0,0,0,0,7.953V30.608a5.662,5.662,0,0,0,5.664,5.664H30.584a5.662,5.662,0,0,0,5.664-5.664V7.953a5.662,5.662,0,0,0-5.664-5.664h-.566a2.266,2.266,0,1,0,0,4.531h.566a1.136,1.136,0,0,1,1.133,1.133V30.608a1.136,1.136,0,0,1-1.133,1.133H5.664a1.136,1.136,0,0,1-1.133-1.133Z" transform="translate(0 -0.025)" opacity="0.19"/>
</svg>
