<svg id="cart-shopping-regular" xmlns="http://www.w3.org/2000/svg" width="40.374" height="36.194" viewBox="0 0 40.374 36.194">
  <path id="cart-shopping-regular-2" data-name="cart-shopping-regular" d="M1.7,0a1.7,1.7,0,1,0,0,3.393H4.913a.574.574,0,0,1,.558.46L9.119,23.01a5.089,5.089,0,0,0,5,4.136H34.5a1.7,1.7,0,0,0,0-3.393H14.117a1.7,1.7,0,0,1-1.668-1.378l-.382-2.015H32.462a5.077,5.077,0,0,0,4.913-3.768l2.9-10.766a2.826,2.826,0,0,0-2.729-3.563H8.49A3.951,3.951,0,0,0,4.913,0ZM9.268,5.655H36.809L34.1,15.708a1.7,1.7,0,0,1-1.64,1.258H11.424Zm3.174,30.539A3.393,3.393,0,1,0,9.049,32.8,3.393,3.393,0,0,0,12.442,36.194ZM36.194,32.8A3.393,3.393,0,1,0,32.8,36.194,3.393,3.393,0,0,0,36.194,32.8Z" opacity="0.26"/>
</svg>
