<svg xmlns="http://www.w3.org/2000/svg" width="32.938" height="29.529" viewBox="0 0 32.938 29.529">
  <path id="cart-shopping-regular" d="M1.384,0a1.384,1.384,0,1,0,0,2.768H4.008a.468.468,0,0,1,.456.375L7.44,18.773a4.152,4.152,0,0,0,4.077,3.374H28.144a1.384,1.384,0,0,0,0-2.768H11.517a1.389,1.389,0,0,1-1.361-1.125L9.845,16.61H26.483a4.142,4.142,0,0,0,4.008-3.074l2.365-8.784A2.305,2.305,0,0,0,30.63,1.846H6.927A3.224,3.224,0,0,0,4.008,0ZM7.561,4.614H30.03l-2.209,8.2a1.383,1.383,0,0,1-1.338,1.027H9.32Zm2.59,24.915A2.768,2.768,0,1,0,7.382,26.76,2.768,2.768,0,0,0,10.15,29.529ZM29.529,26.76a2.768,2.768,0,1,0-2.768,2.768A2.768,2.768,0,0,0,29.529,26.76Z" fill="#fff"/>
</svg>
